<svg width="12" height="14" viewBox="0 0 12 14" fill="none" xmlns="http://www.w3.org/2000/svg">
<path fill-rule="evenodd" clip-rule="evenodd" d="M5.98025 0.166672C4.91267 0.166672 4.02557 0.204728 3.30595 0.352002C2.57727 0.501126 1.97673 0.770727 1.52555 1.265C1.07968 1.75344 0.831605 2.40495 0.689411 3.21277C0.547472 4.01915 0.502914 5.03158 0.502914 6.286C0.502914 6.77012 0.502092 7.22467 0.501322 7.65104L0.501322 7.65107C0.497677 9.66753 0.495172 11.0538 0.586089 11.9579C0.640335 12.4974 0.733877 12.9553 0.939556 13.2842C1.05017 13.461 1.19707 13.6076 1.38781 13.7051C1.57514 13.801 1.77293 13.8333 1.96225 13.8333C2.39476 13.8333 2.81415 13.5954 3.15268 13.3602C3.48315 13.1306 3.83101 12.8333 4.15998 12.5522L4.15999 12.5522L4.23786 12.4856C4.60113 12.1756 4.94234 11.8893 5.26253 11.6791C5.59467 11.461 5.82814 11.3773 5.98025 11.3773C6.13235 11.3773 6.36583 11.461 6.69796 11.6791C7.01816 11.8893 7.35936 12.1756 7.72264 12.4856L7.80049 12.5521C8.12947 12.8333 8.47734 13.1306 8.80782 13.3602C9.14634 13.5954 9.56573 13.8333 9.99825 13.8333C10.1876 13.8333 10.3854 13.801 10.5727 13.7051C10.7634 13.6076 10.9103 13.461 11.0209 13.2842C11.2266 12.9553 11.3202 12.4974 11.3744 11.9579C11.4653 11.0538 11.4628 9.66753 11.4592 7.65108V7.65107L11.4592 7.65023C11.4584 7.22409 11.4576 6.76982 11.4576 6.286C11.4576 5.03158 11.413 4.01915 11.2711 3.21277C11.1289 2.40495 10.8808 1.75344 10.4349 1.265C9.98376 0.770727 9.38322 0.501126 8.65455 0.352002C7.93492 0.204728 7.04783 0.166672 5.98025 0.166672ZM1.50291 6.286C1.50291 5.04143 1.54827 4.10194 1.67427 3.38613C1.80001 2.67176 1.99789 2.23082 2.26411 1.93918C2.52501 1.65337 2.90268 1.45526 3.50644 1.3317C4.11925 1.20628 4.91883 1.16667 5.98025 1.16667C7.04167 1.16667 7.84124 1.20628 8.45405 1.3317C9.05782 1.45526 9.43548 1.65337 9.69638 1.93918C9.9626 2.23082 10.1605 2.67176 10.2862 3.38613C10.4122 4.10194 10.4576 5.04143 10.4576 6.286C10.4576 6.78166 10.4584 7.24334 10.4591 7.67327V7.67397V7.67399C10.4625 9.69115 10.4648 11.0093 10.3794 11.8579C10.3268 12.3809 10.247 12.6357 10.1731 12.7539C10.1439 12.8006 10.1244 12.8112 10.1172 12.8149C10.1066 12.8203 10.0749 12.8333 9.99825 12.8333C9.8991 12.8333 9.70265 12.7643 9.37843 12.539C9.091 12.3393 8.78006 12.0737 8.43868 11.7821L8.37186 11.725C8.0158 11.4211 7.628 11.0934 7.24678 10.8431C6.8775 10.6007 6.43714 10.3773 5.98025 10.3773C5.52335 10.3773 5.08299 10.6007 4.71371 10.8431C4.33249 11.0934 3.94469 11.4211 3.58864 11.725L3.52181 11.7821L3.52177 11.7821C3.18041 12.0737 2.86949 12.3393 2.58207 12.539C2.25784 12.7643 2.0614 12.8333 1.96225 12.8333C1.88557 12.8333 1.85387 12.8203 1.84327 12.8149C1.83608 12.8112 1.8166 12.8006 1.7874 12.7539C1.71345 12.6357 1.63366 12.3809 1.58107 11.8579C1.49574 11.0093 1.49798 9.69115 1.5014 7.67398L1.5014 7.67385C1.50213 7.24375 1.50291 6.78188 1.50291 6.286ZM3.69507 4.64514C3.41893 4.64514 3.19507 4.86899 3.19507 5.14514C3.19507 5.42128 3.41893 5.64514 3.69507 5.64514H8.26507C8.54121 5.64514 8.76507 5.42128 8.76507 5.14514C8.76507 4.86899 8.54121 4.64514 8.26507 4.64514H3.69507Z" fill="#71B1A1"/>
</svg>
