<svg width="14" height="12" viewBox="0 0 14 12" fill="none" xmlns="http://www.w3.org/2000/svg">
<path fill-rule="evenodd" clip-rule="evenodd" d="M7.74218 0.35667C7.50601 0.609415 7.50683 1.01831 7.74402 1.26997L11.5934 5.35414H0.939382L0.857144 5.36003C0.561329 5.40279 0.333328 5.67299 0.333328 5.99994C0.333328 6.35661 0.604668 6.64574 0.939382 6.64574H11.5921L7.74399 10.7298L7.68516 10.8021C7.50863 11.0545 7.52749 11.4134 7.74221 11.6431C7.9784 11.8958 8.36213 11.8967 8.5993 11.645L13.4739 6.47212C13.5873 6.3593 13.6601 6.20063 13.6661 6.02383C13.6722 5.85009 13.6129 5.67421 13.4881 5.5418L8.59926 0.354704L8.53116 0.29233C8.29352 0.105287 7.95687 0.126902 7.74218 0.35667Z" fill="white"/>
</svg>
