<svg width="10" height="11" viewBox="0 0 10 11" fill="none" xmlns="http://www.w3.org/2000/svg">
<path d="M7.69534 9.87514C7.62957 9.8754 7.56539 9.8549 7.51195 9.81655L5.00003 7.99546L2.48812 9.81655C2.43445 9.85548 2.3698 9.87632 2.30351 9.87608C2.23721 9.87584 2.17271 9.85452 2.11933 9.81521C2.06595 9.7759 2.02645 9.72063 2.00655 9.65739C1.98665 9.59415 1.98738 9.52623 2.00863 9.46343L2.98831 6.56167L0.449252 4.82046C0.394254 4.78278 0.352745 4.72851 0.330789 4.66557C0.308834 4.60262 0.307582 4.53431 0.327218 4.4706C0.346853 4.40689 0.386347 4.35113 0.439928 4.31147C0.493509 4.27181 0.55837 4.25032 0.625033 4.25015H3.75746L4.70277 1.34097C4.72313 1.27816 4.76287 1.22341 4.81627 1.18459C4.86968 1.14576 4.93401 1.12485 5.00003 1.12485C5.06606 1.12485 5.13039 1.14576 5.1838 1.18459C5.2372 1.22341 5.27693 1.27816 5.2973 1.34097L6.24261 4.25112H9.37503C9.44178 4.25109 9.50678 4.27243 9.56052 4.31202C9.61427 4.3516 9.65392 4.40735 9.67368 4.47111C9.69344 4.53487 9.69227 4.60327 9.67033 4.66631C9.6484 4.72935 9.60686 4.78371 9.55179 4.82143L7.01175 6.56167L7.99085 9.46265C8.00672 9.50961 8.01118 9.55968 8.00387 9.60871C7.99656 9.65775 7.97769 9.70434 7.94882 9.74464C7.91995 9.78494 7.88191 9.81779 7.83784 9.84048C7.79376 9.86317 7.74492 9.87506 7.69534 9.87514Z" fill="#FFAD30"/>
</svg>
