<svg width="17" height="18" viewBox="0 0 17 18" fill="none" xmlns="http://www.w3.org/2000/svg">
<g id="Icon" clip-path="url(#clip0_100_2345)">
<g id="Group">
<path id="Vector" d="M5.6667 4.58548C5.63906 4.55806 5.63905 4.55806 5.61141 4.53065C5.4732 4.39355 5.41792 4.33871 5.41792 4.22903C5.41792 4.09194 5.4732 4.06452 5.61141 3.92742C5.6667 3.87258 5.74962 3.79032 5.80491 3.73548C5.88784 3.62581 5.88784 3.48871 5.77727 3.40645C5.6667 3.32419 5.52849 3.32419 5.44556 3.43387C5.39027 3.48871 5.33499 3.54355 5.27971 3.59839C5.11385 3.7629 4.948 3.92742 4.948 4.25645C4.948 4.58548 5.11385 4.75 5.27971 4.91452C5.30735 4.94194 5.30735 4.94194 5.33499 4.96935C5.50084 5.10645 5.61141 5.21613 5.61141 5.4629C5.61141 5.7371 5.4732 5.90161 5.30735 6.06613C5.27971 6.09355 5.27971 6.09355 5.25206 6.12097C5.16914 6.23065 5.16914 6.36774 5.27971 6.45C5.33499 6.47742 5.39027 6.50484 5.44556 6.50484C5.50084 6.50484 5.58377 6.47742 5.63905 6.42258C5.6667 6.39516 5.6667 6.39516 5.69434 6.36774C5.88784 6.17581 6.13662 5.90161 6.13662 5.43548C6.10897 4.96935 5.86019 4.75 5.6667 4.58548Z" fill="#A9A9A9" stroke="#A9A9A9" stroke-width="0.2"/>
<path id="Vector_2" d="M9.03901 3.51613C9.01137 3.48871 9.01137 3.48871 8.98373 3.46129C8.84552 3.32419 8.79023 3.26935 8.79023 3.15968C8.79023 3.02258 8.84552 2.99516 8.98373 2.85806C9.03901 2.80323 9.12194 2.72097 9.17722 2.66613C9.26015 2.55645 9.26015 2.41935 9.14958 2.3371C9.03901 2.25484 8.9008 2.25484 8.81787 2.36452C8.76259 2.41935 8.7073 2.47419 8.65202 2.52903C8.48617 2.69355 8.32031 2.85806 8.32031 3.1871C8.32031 3.51613 8.48617 3.68065 8.65202 3.84516C8.67966 3.87258 8.67966 3.87258 8.7073 3.9C8.87316 4.0371 8.98373 4.14677 8.98373 4.39355C8.98373 4.66774 8.84552 4.83226 8.67966 4.99677C8.65202 5.02419 8.65202 5.02419 8.62438 5.05161C8.54145 5.16129 8.54145 5.29839 8.65202 5.38065C8.7073 5.40806 8.76259 5.43548 8.81787 5.43548C8.87316 5.43548 8.95608 5.40806 9.01137 5.35323C9.03901 5.32581 9.03901 5.32581 9.06665 5.29839C9.26015 5.10645 9.50893 4.83226 9.50893 4.36613C9.48129 3.9 9.23251 3.68065 9.03901 3.51613Z" fill="#A9A9A9" stroke="#A9A9A9" stroke-width="0.2"/>
<path id="Vector_3" d="M12.4389 4.58548C12.4113 4.55806 12.4113 4.55806 12.3836 4.53065C12.2454 4.39355 12.1901 4.33871 12.1901 4.22903C12.1901 4.09194 12.2454 4.06452 12.3836 3.92742C12.4389 3.87258 12.5218 3.79032 12.5771 3.73548C12.6601 3.62581 12.6601 3.48871 12.5495 3.40645C12.4389 3.32419 12.3007 3.32419 12.2178 3.43387C12.1625 3.48871 12.1072 3.54355 12.0519 3.59839C11.8861 3.7629 11.7202 3.92742 11.7202 4.25645C11.7202 4.58548 11.8861 4.75 12.0519 4.91452C12.0796 4.94194 12.0796 4.94194 12.1072 4.96935C12.2731 5.10645 12.3836 5.21613 12.3836 5.4629C12.3836 5.7371 12.2454 5.90161 12.0796 6.06613C12.0519 6.09355 12.0519 6.09355 12.0243 6.12097C11.9414 6.23065 11.9414 6.36774 12.0519 6.45C12.1072 6.47742 12.1625 6.50484 12.2178 6.50484C12.2731 6.50484 12.356 6.47742 12.4113 6.42258C12.4389 6.39516 12.4389 6.39516 12.4666 6.36774C12.6601 6.17581 12.9088 5.90161 12.9088 5.43548C12.8535 4.96935 12.6048 4.75 12.4389 4.58548Z" fill="#A9A9A9" stroke="#A9A9A9" stroke-width="0.2"/>
<path id="Vector_4" d="M16.8065 14.5661H0.995118C0.856907 14.5661 0.746338 14.6758 0.746338 14.8129V15.3887C0.746338 16.0194 1.27154 16.5403 1.90731 16.5403H15.8943C16.5301 16.5403 17.0553 16.0194 17.0553 15.3887V14.8129C17.0553 14.6758 16.9447 14.5661 16.8065 14.5661ZM16.5577 15.3887C16.5577 15.7726 16.2537 16.0742 15.8667 16.0742H1.90731C1.52032 16.0742 1.21626 15.7726 1.21626 15.3887V15.0597H16.5577V15.3887Z" fill="#A9A9A9" stroke="#A9A9A9" stroke-width="0.2"/>
<path id="Vector_5" d="M13.2958 9.41129C12.3283 8.47903 11.0844 7.90323 9.78525 7.71129L10.2552 7.24516C10.3934 7.10806 10.4487 6.88871 10.3657 6.69677C10.2828 6.50484 10.117 6.39516 9.89581 6.39516H7.90557C7.71207 6.39516 7.51858 6.50484 7.43565 6.69677C7.35273 6.88871 7.40801 7.08065 7.54622 7.24516L8.01614 7.71129C6.68931 7.90323 5.47305 8.47903 4.47793 9.41129C3.28931 10.5355 2.59825 12.071 2.54297 13.6887C2.54297 13.8258 2.65354 13.9355 2.76411 13.9355C2.90232 13.9355 3.01289 13.8258 3.01289 13.7161C3.06817 12.2081 3.70394 10.8097 4.80964 9.76774C5.8324 8.78065 7.15923 8.23226 8.54134 8.15C8.56899 8.15 8.59663 8.15 8.62427 8.15C8.65191 8.15 8.67955 8.15 8.7072 8.15C8.73484 8.15 8.73484 8.15 8.76248 8.15C8.79012 8.15 8.84541 8.15 8.87305 8.15C8.90069 8.15 8.95598 8.15 8.98362 8.15C9.01126 8.15 9.01126 8.15 9.0389 8.15C9.06655 8.15 9.09419 8.15 9.12183 8.15C9.14947 8.15 9.17711 8.15 9.20476 8.15C10.6145 8.23226 11.9137 8.78065 12.9365 9.76774C14.0422 10.8097 14.6779 12.2081 14.7332 13.7161C14.7332 13.8532 14.8438 13.9629 14.982 13.9355C15.1202 13.9355 15.2308 13.8258 15.2031 13.6887C15.1755 12.0435 14.4844 10.5355 13.2958 9.41129ZM9.14947 7.65645H9.12183C9.09419 7.65645 9.06655 7.65645 9.0389 7.65645C8.98362 7.65645 8.95598 7.65645 8.90069 7.65645C8.84541 7.65645 8.81777 7.65645 8.76248 7.65645C8.73484 7.65645 8.7072 7.65645 8.67955 7.65645H8.65191L7.90557 6.91613H9.89581L9.14947 7.65645Z" fill="#A9A9A9" stroke="#A9A9A9" stroke-width="0.2"/>
</g>
</g>
<defs>
<clipPath id="clip0_100_2345">
<rect width="17" height="17" fill="white" transform="translate(0 0.5)"/>
</clipPath>
</defs>
</svg>
